<svg xmlns="http://www.w3.org/2000/svg" width="960" height="320" viewBox="0 0 960 320" role="img" aria-labelledby="title desc">
  <title id="title">Vision RAG</title>
  <desc id="desc">A stylized video frame, vector nodes, and highlight spark for the Vision RAG project.</desc>
  <defs>
    <linearGradient id="bg" x1="0" y1="0" x2="1" y2="1">
      <stop offset="0" stop-color="#f8fbff"/>
      <stop offset="1" stop-color="#eef7f3"/>
    </linearGradient>
    <linearGradient id="lens" x1="0" y1="0" x2="1" y2="1">
      <stop offset="0" stop-color="#4568f0"/>
      <stop offset="0.48" stop-color="#2fa879"/>
      <stop offset="1" stop-color="#f2b84b"/>
    </linearGradient>
    <filter id="shadow" x="-20%" y="-25%" width="140%" height="150%">
      <feDropShadow dx="0" dy="14" stdDeviation="16" flood-color="#16324f" flood-opacity="0.16"/>
    </filter>
  </defs>
  <rect width="960" height="320" rx="42" fill="url(#bg)"/>
  <g filter="url(#shadow)">
    <rect x="58" y="54" width="252" height="188" rx="28" fill="#ffffff" stroke="#d8e3ef" stroke-width="4"/>
    <rect x="82" y="82" width="204" height="132" rx="18" fill="#0f1f38"/>
    <path d="M148 116 L224 148 L148 180 Z" fill="#ffffff" opacity="0.92"/>
    <path d="M92 230 H276" stroke="#2fa879" stroke-width="10" stroke-linecap="round"/>
  </g>
  <g fill="none" stroke="#8ba0bc" stroke-width="5" stroke-linecap="round">
    <path d="M348 126 C398 78 472 76 522 126"/>
    <path d="M348 194 C406 238 468 236 522 194"/>
    <path d="M386 160 H526"/>
  </g>
  <g>
    <circle cx="348" cy="126" r="14" fill="#4568f0"/>
    <circle cx="386" cy="160" r="14" fill="#2fa879"/>
    <circle cx="348" cy="194" r="14" fill="#f2b84b"/>
    <circle cx="522" cy="126" r="14" fill="#2fa879"/>
    <circle cx="526" cy="160" r="14" fill="#4568f0"/>
    <circle cx="522" cy="194" r="14" fill="#f2b84b"/>
  </g>
  <g transform="translate(568 72)">
    <path d="M54 0 L69 38 L110 42 L78 68 L88 108 L54 86 L20 108 L30 68 L-2 42 L39 38 Z" fill="url(#lens)"/>
    <circle cx="54" cy="54" r="22" fill="#ffffff" opacity="0.92"/>
    <circle cx="54" cy="54" r="11" fill="#16324f"/>
  </g>
  <text x="568" y="205" fill="#16324f" font-family="Inter, ui-sans-serif, system-ui, -apple-system, BlinkMacSystemFont, Segoe UI, sans-serif" font-size="54" font-weight="800" letter-spacing="0">Vision RAG</text>
  <text x="570" y="244" fill="#5f7086" font-family="Inter, ui-sans-serif, system-ui, -apple-system, BlinkMacSystemFont, Segoe UI, sans-serif" font-size="22" font-weight="500" letter-spacing="0">Multimodal video retrieval and highlight intelligence</text>
</svg>
